<svg display="block" role="presentation" viewBox="0 0 662 272" xmlns="http://www.w3.org/2000/svg"><path d="M 0 5.423 C 16.059 -3.348 27.595 -1.775 39.342 12.308 C 40.399 13.135 40.868 13.31 42.05 13.948 C 43.007 12.003 43.173 11.866 44.593 10.359 L 44.969 9.966 C 44.821 13.539 44.443 18.732 44.517 22.17 C 43.793 24.03 42.95 26.032 42.393 27.925 C 36.686 41.163 33.612 39.6 21.994 46.2 C 21.03 51.258 21.18 51.349 16.44 52.334 C 12.953 49.212 1.945 12.284 0 5.423 Z" fill="rgb(255, 255, 255)" height="52.33446699777845px" id="D4kQMOf10" transform="translate(573.699 7.236)" width="44.96900000000005px"/><path d="M 0 2.343 C 1.057 3.17 1.526 3.345 2.708 3.983 C 3.665 2.037 3.831 1.9 5.251 0.393 L 5.628 0 C 5.48 3.573 5.101 8.767 5.175 12.205 C 4.451 14.064 3.608 16.066 3.051 17.959 C 2.724 11.157 2.171 8.804 0 2.343 Z" fill="rgb(58, 173, 114)" height="17.9593px" id="EDYVsrGvL" transform="translate(613.043 17.201)" width="5.628000000000043px"/><path d="M 8.79 0.17 C 9.821 0.067 10.811 -0.03 11.848 0.009 C 16.316 0.174 19.675 1.52 22.621 4.944 C 26.018 8.894 27.092 14.168 26.534 19.237 C 25.868 25.281 22.921 28.772 18.337 32.347 C 16.138 33.069 13.187 34.661 10.993 33.979 C 6.86 23.908 1.849 12.578 0 1.889 C 2.488 0.237 5.879 0.401 8.79 0.17 Z" fill="rgb(58, 173, 114)" height="34.14504841030691px" id="cf9t1AynI" transform="translate(581.75 12.741)" width="26.673812510772336px"/><path d="M 204.959 9.566 C 195.101 9.52 185.447 9.529 175.584 10.13 C 175.584 10.13 172.613 8.114 172.289 7.892 C 158.055 13.378 118.48 7.355 101.045 10.029 C 98.67 10.399 84.124 8.077 80.504 8.373 C 67.31 9.446 7.03 10.704 0 3.997 C 4.42 2.59 11.057 2.6 15.755 2.738 C 49.292 3.738 83.171 2.535 116.69 1.138 C 116.69 1.138 120.619 3.294 120.925 3.46 C 131.124 -0.925 147.392 2.683 158.461 2.757 C 166.875 2.812 175.298 0.916 183.792 1.203 L 184.82 2.775 C 188.418 4.367 192.69 -2.72 196.915 1.452 L 195.579 3.404 L 195.96 4.57 C 197.854 3.182 198.506 2.008 199.851 0.12 L 201.584 0 L 202.849 1.388 L 202.27 4.163 C 205.039 7.392 204.59 6.023 204.959 9.566 Z" fill="rgb(255, 255, 255)" height="10.290578420243065px" id="J8_Peb97k" transform="translate(105.797 182.669)" width="204.95899999999997px"/><path d="M 0 0 C 1.885 0.12 3.273 0.129 4.911 1.203 L 4.726 3.636 C 3.686 3.895 2.736 3.932 1.668 3.997 Z" fill="rgb(255, 255, 255)" height="3.997000000000014px" id="lrQDdrPkz" transform="translate(283.664 187.646)" width="4.911000000000001px"/><path d="M 46.511 34.369 C 36.768 36.827 11.977 50.502 5.664 51.022 C 3.35 51.212 2.509 50.651 0.749 49.263 C -2.678 41.595 6.43 6.675 12.521 0 C 16.955 0.553 40.69 25.579 45.053 29.959 Z" fill="rgb(255, 255, 255)" height="51.05778469228512px" id="MqCwHwGCQ" transform="translate(491.648 33.631)" width="46.510545328572505px"/><path d="M 7.257 0 C 14.868 6.333 23.805 18.478 31.33 25.977 L 18.244 31.198 C 12.214 33.608 6.131 35.882 0 38.022 Z" fill="rgb(58, 173, 114)" height="38.0215px" id="Fr714U9qK" transform="translate(498.273 38.001)" width="31.329999999999927px"/><path d="M 34.146 0 C 38.832 1.896 40.673 0.231 43.274 2.211 C 42.714 6.485 42.553 9.288 42.432 13.618 C 42.584 20.936 40.921 26.978 43.848 32.695 L 40.959 38.672 C 36.023 34.989 34.967 33.333 31.669 28.236 C 26.307 34.74 19.785 47.22 10.662 45.638 C 7.681 43.538 5.341 42.224 3.282 39.227 C 2.789 34.083 1.4 34.101 0 29.605 C 0.323 26.441 1.067 25.618 3.12 23.036 C 4.919 21.593 3.03 18.392 4.538 16.977 C 10.26 11.601 19.441 5.468 27.163 3.682 C 32.168 2.525 30.943 3.96 34.146 0 Z" fill="rgb(255, 255, 255)" height="45.77528324927877px" id="WDklCezHs" transform="translate(267.762 225.717)" width="43.84800000000001px"/><path d="M 9.739 3.153 C 13.545 1.525 17.962 -1.297 21.732 0.674 L 22.442 3.597 L 20.836 5.457 C 16.669 10.175 11.437 31.963 2.771 30.094 C -4.663 19.51 4.659 11.239 9.739 3.153 Z" fill="rgb(58, 173, 114)" height="30.207097558050066px" id="cq8iQYyqs" transform="translate(276.199 234.267)" width="22.441776828642844px"/><path d="M 1.606 0.173 C 10.066 2.68 4.035 -2.436 13.16 1.644 C 13.311 8.962 11.649 15.003 14.576 20.721 L 11.687 26.698 C 6.751 23.015 5.695 21.359 2.397 16.262 C 2.367 16.132 2.338 16.012 2.31 15.882 C 3.387 9.601 0.403 9.24 0 2.033 Z" fill="rgb(255, 255, 255)" height="26.698253144723537px" id="DZRgIQIVK" transform="translate(297.035 237.691)" width="14.575999999999965px"/><path d="M 6.493 31.647 C 4.83 23.859 -2.935 8.662 1.195 2.61 C 6.241 -1.133 14.394 -0.669 19.65 2.845 C 20.904 3.684 20.535 9.788 20.584 11.684 C 21.999 13.949 27.192 13.689 32.304 15.829 L 33.901 17.52 C 36.151 17.124 36.771 16.548 38.665 15.343 C 51.348 49.992 59.056 18.249 65.412 20.108 C 67.438 22.811 67.299 21.846 67.577 24.799 C 61.095 40.032 44.967 42.35 38.076 26.808 C 31.763 32.906 26.688 41.756 18.475 42.509 L 17.107 42.473 C 15.238 44.582 14.622 44.68 12.107 43.965 C 9.446 41.114 7.865 35.497 6.493 31.647 Z" fill="rgb(255, 255, 255)" height="44.36550740659891px" id="zqVK9m3TS" transform="translate(359.219 65.162)" width="67.57734231441566px"/><path d="M 5.466 11.578 C 4.204 7.019 3.734 7.917 4.971 3.973 C 10.32 -1.226 18.819 -1.196 24.603 3.321 L 25.293 5.189 C 23.243 9.232 15.106 14.758 11.549 18.105 C 10.992 18.63 11.717 22.286 11.982 23.347 L 10.614 23.311 C 8.745 25.419 8.129 25.517 5.614 24.802 C 2.953 21.952 1.372 16.334 0 12.485 C 1.985 13.604 2.253 13.927 4.55 13.66 Z" fill="rgb(58, 173, 114)" height="25.20292141933031px" id="XKMb3xVPh" transform="translate(365.711 84.324)" width="25.293000000000006px"/><path d="M 5.466 0 C 7.472 3.07 9.24 8.166 10.614 11.733 C 8.745 13.842 8.129 13.94 5.614 13.225 C 2.953 10.374 1.372 4.757 0 0.907 C 1.985 2.026 2.253 2.349 4.55 2.082 Z" fill="rgb(255, 255, 255)" height="13.625308694965028px" id="ZNRDJBy4R" transform="translate(365.711 95.902)" width="10.613999999999976px"/><path d="M 7.776 0.176 C 8.842 -0.017 10.049 0.043 11.138 0 L 11.022 1.308 C 8.773 4.277 6.933 7.335 5.083 10.557 C 3.85 9.746 2.481 8.662 1.541 7.525 C -0.031 5.623 -0.218 4.73 0.178 2.392 C 2.686 0.156 4.575 0.477 7.776 0.176 Z" fill="rgb(58, 173, 114)" height="10.557099999999991px" id="ujJIRU84I" transform="translate(363.773 71.061)" width="11.13795382688977px"/><path d="M 17.923 0 C 23.391 0.787 26.251 -0.584 31.207 3.041 C 34.036 5.11 35.872 7.997 36.179 11.525 C 36.551 15.805 34.472 23.372 31.566 26.622 C 25.982 32.866 16.015 34.077 8.171 34.47 C 7.012 36.826 7.897 40.963 8.097 43.575 C 7.722 45.534 7.664 47.46 7.928 49.43 C 8.129 50.938 8.521 52.483 8.077 53.973 C 7.526 55.823 7.064 55.981 5.395 56.813 C 3.295 55.86 2.251 55.333 1.473 53.02 C 0.426 49.902 0.75 21.153 0.393 14.821 C 0.302 13.195 -0.454 8.719 0.411 7.336 C 3.557 2.309 12.532 1.198 17.923 0 Z" fill="rgb(255, 255, 255)" height="56.813px" id="JJLol0Uge" transform="translate(203.195 107.991)" width="36.2217260082862px"/><path d="M 4.016 0.561 C 7.703 0.321 11.929 -0.254 15.592 0.127 C 19.253 0.507 22.508 1.97 24.865 4.822 C 25.129 6.302 25.63 7.571 24.893 9.003 C 23.453 11.797 19.393 14.605 16.49 15.487 C 12.679 16.556 11.089 18.7 7.801 20.083 C 5.711 20.961 2.982 19.178 0.946 18.329 C 0.89 14.004 -0.96 6.647 0.669 2.732 C 1.269 1.291 2.641 1.143 4.016 0.561 Z" fill="rgb(58, 173, 114)" height="20.319920513893948px" id="vMwaRktnL" transform="translate(209.504 114.959)" width="25.27815170743554px"/><path d="M 12.752 0 C 21.379 1.738 36.594 30.212 42.126 33.465 C 43.005 33.981 45.321 34.163 46.406 34.401 C 47.963 36.048 47.784 36.31 47.94 38.478 L 46.524 40.024 C 43.362 41.391 40.517 40.806 37.228 40.38 C 33.201 42.529 29.287 44.39 24.987 45.927 C 17.343 49.091 9.451 52.879 1.133 53.692 L 0 52.737 C 1.256 50.055 3.937 48.896 6.382 47.418 C 7.593 31.431 10.124 15.801 12.752 0 Z" fill="rgb(255, 255, 255)" height="53.691500000000005px" id="vgkdHuidP" transform="translate(271.355 83.96)" width="47.94px"/><path d="M 4.138 5.041 L 5.058 0.35 L 6.17 0 L 7.871 3.133 C 13.893 12.289 16.69 17.723 25.499 24.381 C 16.153 27.882 8.911 30.602 0 34.986 C 0.979 26.659 4.055 11.962 4.138 5.041 Z" fill="rgb(58, 173, 114)" height="34.98589999999999px" id="Rt3WlThce" transform="translate(283.184 95.684)" width="25.498999999999967px"/><path d="M 0 5.041 L 0.92 0.35 L 2.032 0 L 3.733 3.133 Z" fill="rgb(58, 173, 114)" height="5.0408999999999935px" id="gbJ7t2edn" transform="translate(287.324 95.684)" width="3.733000000000004px"/><path d="M 3.551 29.763 C 5.158 22.297 8.236 7.248 11.491 0.692 L 12.884 0 C 16.656 2.471 17.893 6.117 20.984 9.735 C 26.067 15.683 30.976 18.418 37.727 22.163 L 36.586 24.718 C 41.537 28.333 48.4 33.465 48.303 40.248 L 46.963 41.66 C 30.38 40.401 44.787 20.167 9.834 28.046 C 9.202 34.299 10.059 45.406 6.448 48.468 C 4.497 47.987 4.312 47.604 2.786 46.316 L 1.458 47.18 L 0 42.769 C 1.305 40.958 1.684 33.349 2.102 30.327 Z" fill="rgb(255, 255, 255)" height="48.46849999999999px" id="AIg1sFXkf" transform="translate(536.699 20.82)" width="48.30401692309897px"/><path d="M 0 13.006 C 1.305 11.194 1.684 3.585 2.102 0.563 L 3.551 0 C 3.344 3.663 2.56 13.344 2.786 16.553 L 1.458 17.416 Z" fill="rgb(58, 173, 114)" height="17.416200000000003px" id="Pk6uIXSvk" transform="translate(536.699 50.584)" width="3.5510000000000446px"/><path d="M 3.171 0 C 6.425 3.542 10.571 7.255 12.7 11.575 L 11.269 12.508 L 0 13.51 C 0.886 8.952 1.983 4.489 3.171 0 Z" fill="rgb(58, 173, 114)" height="13.510200000000001px" id="opHd5dQTm" transform="translate(546.934 29.966)" width="12.700000000000045px"/><path d="M 2.968 0 C 11.288 0.894 23.69 15.465 29.446 21.509 C 32.482 24.697 38.182 29.677 38.073 34.214 C 37.725 34.432 37.38 34.656 37.027 34.865 C 30.078 38.981 27.561 27.924 20.198 26.045 L 8.18 28.222 C 8.398 35.223 8.77 41.91 7.417 48.823 L 6.439 47.846 C 4.698 48.229 3.387 49.291 1.944 50.281 L 0.78 49.151 C -1.567 34.576 2.046 14.966 2.968 0 Z" fill="rgb(255, 255, 255)" height="50.28139999999999px" id="Lvs9HULK5" transform="translate(326.226 74.932)" width="38.07413079085802px"/><path d="M 0.517 0 C 4.356 4.68 8.348 7.904 13.427 11.186 L 12.484 11.925 C 9.058 12.813 5.25 14.408 1.823 13.105 C -0.952 9.294 0.174 4.503 0.517 0 Z" fill="rgb(58, 173, 114)" height="13.597715871663695px" id="jn40ZQ2VJ" transform="translate(333.801 84.227)" width="13.427238741773749px"/><path d="M 0.462 17.201 L 2.469 15.439 C 2.732 10.449 8.788 5.34 12.208 2.137 C 17.477 -2.797 35.45 1.357 34.047 9.049 C 29.892 9.452 28.323 7.41 24.717 4.647 C 21.628 5.923 16.477 7.894 13.677 9.394 C 4.893 22.122 6.389 24.445 11.322 38.655 C 14.307 41.26 16.127 42.94 19.52 45.024 C 29.649 38.719 32.402 34.543 37.392 23.765 C 40.653 26.179 41.346 25.913 42.83 29.343 C 42.032 40.443 30.134 47.599 20.304 50.018 C 16.023 47.991 12.441 46.426 8.036 44.689 C 4.132 38.971 1.954 36.061 0.01 29.406 C -0.064 25.968 0.314 20.774 0.462 17.201 Z" fill="rgb(255, 255, 255)" height="50.01759855858218px" id="KXLUrTCIQ" transform="translate(618.207 0)" width="42.829500039971094px"/><path d="M 0 0 C 2.433 6.236 3.279 8.919 4.678 15.45 L 12.568 13.942 C 14.99 9.159 17.63 8.216 21.79 4.654 C 21.903 8.364 21.289 7.808 23.166 10.084 C 13.202 23.61 15.657 23.055 10.073 35.184 C 7.435 40.948 8.245 47.655 5.203 50.496 L 3.316 50.19 C 0.381 47.137 2.015 40.596 1.925 35.952 C 1.69 23.916 0.028 12.036 0 0 Z" fill="rgb(255, 255, 255)" height="50.49600000000001px" id="om8Cj12MA" transform="translate(195.699 207.852)" width="23.165999999999997px"/><path d="M 7.89 9.289 C 10.311 4.506 12.951 3.562 17.111 0 C 17.224 3.71 16.611 3.155 18.487 5.431 C 8.524 18.957 10.979 18.402 5.394 30.531 C 5.121 26.802 5.432 23.657 2.231 21.612 C 1.3 18.023 0.68 14.451 0 10.797 Z" fill="rgb(255, 255, 255)" height="30.531000000000006px" id="eQPlgBJ3n" transform="translate(200.375 212.505)" width="18.486999999999995px"/><path d="M 7.89 0 L 8.019 2.535 C 5.016 5.838 2.777 7.79 2.231 12.323 C 1.3 8.734 0.68 5.162 0 1.508 Z" fill="rgb(58, 173, 114)" height="12.322999999999979px" id="FQOlhCnX4" transform="translate(200.375 221.794)" width="8.019000000000005px"/><path d="M 0.011 0.176 C 3.032 -0.471 7.96 0.75 10.422 2.526 C 18.703 8.475 17.215 21.391 18.039 30.263 C 18.572 36.008 21.585 40.292 18.279 45.5 C 15.562 46.564 15.146 46.203 12.163 45.343 C 10.122 41.346 12.587 27.857 12.244 22.658 C 11.964 18.402 11.115 15.303 9.984 11.177 C 7.202 8.235 5.676 5.552 1.387 5.607 C -0.49 3.331 0.124 3.886 0.011 0.176 Z" fill="rgb(255, 255, 255)" height="46.1554068540878px" id="LUCyecJFm" transform="translate(217.476 212.329)" width="19.80523860802549px"/><path d="M 34.832 0 C 35.883 0.334 36.924 0.696 37.954 1.085 C 40.756 2.144 42.2 3.363 43.407 6.029 C 43.016 7.738 42.626 8.664 41.33 9.898 C 33.692 17.166 25.227 11.217 16.497 11.627 C 11.133 11.877 8.834 13.994 5.459 17.761 C 4.672 18.906 4.385 18.725 3.104 19.101 L 0.652 17.572 C 0.012 15.559 -0.467 14.461 0.767 12.456 C 8.109 0.52 20.665 9.388 30.695 6.841 C 33.405 4.739 33.673 3.137 34.832 0 Z" fill="rgb(255, 255, 255)" height="19.100900000000003px" id="V9M67omo3" transform="translate(435.109 56.36)" width="43.40671055814147px"/><path d="M 6.261 0 C 8.176 0.278 9.18 0.602 10.83 1.61 C 13.053 11.833 10.899 26.571 9.352 36.859 C 8.516 42.41 8.29 46.333 3.656 49.765 L 1.755 48.867 C 4.328 37.266 5.169 24.573 5.885 12.712 L 5.074 12.074 C 3.434 13.138 2.058 14.294 0.018 14.266 C -0.328 10.455 4.539 3.627 6.261 0 Z" fill="rgb(255, 255, 255)" height="49.764999999999986px" id="GpsPNWhuD" transform="translate(114.835 206.575)" width="11.783557964912092px"/><path d="M 27.424 28.031 C 22.133 28.179 11.484 28.309 6.746 26.237 C -11.506 18.262 11.609 -7.192 25.019 1.957 C 27.031 3.331 29.712 6.825 29.904 9.239 C 24.213 5.341 15.885 0.119 9.972 6.775 C 7.08 10.028 4.346 15.838 4.494 20.241 C 8.978 26.699 20.174 18.993 31.704 25.792 Z" fill="rgb(255, 255, 255)" height="28.1047334304248px" id="J1CEMQYFy" transform="translate(10.887 144.442)" width="31.7039818823823px"/><path d="M 0.58 1.099 C 7.884 0.007 26.458 -1.954 31.034 5.179 C 29.116 12.016 8.556 10.119 2.689 9.277 C 2.32 5.734 2.77 7.103 0 3.874 Z" fill="rgb(255, 255, 255)" height="10.170566867502828px" id="qfjOBppEo" transform="translate(308.066 182.958)" width="31.03400000000005px"/><path d="M 0 30.345 C 0.468 23.702 0.157 3.432 3.317 0 C 12.895 1.101 9.459 25.201 9.128 32.556 C 6.527 30.576 4.687 32.242 0 30.345 Z" fill="rgb(255, 255, 255)" height="32.55599999999998px" id="G3g5QCd4Q" transform="translate(301.906 195.372)" width="9.995845438983793px"/><path d="M 0 0.397 C 7.262 0.064 31.454 -0.908 36.848 2.349 C 38.797 3.533 38.697 5.772 39.133 7.817 C 28.778 7.086 12.094 9.371 2.761 4.652 C 0.727 3.625 0.7 2.377 0 0.397 Z" fill="rgb(255, 255, 255)" height="7.817143215721018px" id="snpWzGN8W" transform="translate(140.504 228.743)" width="39.13300000000001px"/><path d="M 16.296 14.442 C 11.535 12.481 0.041 7.226 0 1.286 L 1.972 0 C 9.056 0.62 13.643 13.748 22.672 5.116 C 24.272 3.59 29.219 1.517 31.484 0.583 L 36.509 2.979 C 33.015 6.92 21.806 13.424 16.296 14.442 Z" fill="rgb(255, 255, 255)" height="14.441999999999979px" id="c63PkTYhU" transform="translate(0 195.954)" width="36.5093px"/><path d="M 9.194 2.14 C 17.055 -0.43 24.193 -2.558 27.665 7.455 L 27.176 9.496 C 24.207 8.821 18.035 -6.526 9.223 11.713 C 7.806 14.644 7.491 17.824 6.361 20.544 C 4.467 21.749 3.847 22.325 1.598 22.721 L 0 21.03 C 2.511 12.57 4.007 9.276 9.194 2.14 Z" fill="rgb(255, 255, 255)" height="22.721301695858465px" id="xHCM6Utvl" transform="translate(391.523 59.961)" width="27.664999999999964px"/><path d="M 11.106 0 C 19.349 9.862 12.432 21.001 5.025 28.698 L 0 26.302 C 5.188 17.337 14.184 13.609 6.827 2.239 Z" fill="rgb(255, 255, 255)" height="28.69799999999998px" id="xBb6aePAB" transform="translate(31.484 170.235)" width="14.8430195475759px"/><path d="M 12.012 0.186 C 18.265 -0.027 22.498 -0.683 27.887 2.925 L 27.8 4.442 C 25.139 5.793 22.363 5.395 19.463 5.302 C 12.725 5.395 6.487 5.793 0 3.581 L 0.12 2.314 C 3.822 0.39 7.933 0.436 12.012 0.186 Z" fill="rgb(255, 255, 255)" height="5.429122344030702px" id="MG4wCuST6" transform="translate(57.117 182.973)" width="27.8874px"/><path d="M 24.09 0.537 C 27.496 -0.092 31.695 -0.435 34.851 1.055 L 34.955 2.257 C 30.186 6.495 24.381 5.718 18.446 5.643 C 12.247 5.782 6.186 5.653 0 5.31 C 8.036 2.59 15.655 1.138 24.09 0.537 Z" fill="rgb(255, 255, 255)" height="5.745927998262857px" id="dVY1VHRau" transform="translate(51.633 172.446)" width="34.95479999999999px"/><path d="M 2.889 0 C 6.769 0.87 12.488 1.85 13.998 6.134 C 11.969 8.169 12.477 7.54 9.115 8.216 L 8.493 7.263 C 7.697 6.06 7.581 5.949 6.391 5.051 C 4.561 5.375 1.766 6.004 0 5.977 Z" fill="rgb(255, 255, 255)" height="8.216000000000008px" id="xCozk86Ai" transform="translate(308.719 258.412)" width="13.99799999999999px"/><path d="M 3.323 0 C 5.581 0.75 6.988 1.166 8.479 3.072 C 8.278 6.107 7.246 7.096 5.595 9.474 C 5.304 9.419 5.011 9.372 4.723 9.317 C 2.125 8.762 1.504 8.817 0 6.578 C 0.369 3.71 1.604 2.221 3.323 0 Z" fill="rgb(255, 255, 255)" height="9.474000000000018px" id="M3NM5T56L" transform="translate(251.461 230.379)" width="8.478999999999985px"/></svg>